<?xml version="1.0" encoding="utf-8"?>
<!-- Generator: Adobe Illustrator 17.0.0, SVG Export Plug-In . SVG Version: 6.00 Build 0)  -->
<!DOCTYPE svg PUBLIC "-//W3C//DTD SVG 1.1//EN" "http://www.w3.org/Graphics/SVG/1.1/DTD/svg11.dtd">
<svg version="1.1" id="Layer_1" xmlns="http://www.w3.org/2000/svg" xmlns:xlink="http://www.w3.org/1999/xlink" x="0px" y="0px"
	 width="240.733px" height="173.708px" viewBox="0 0 240.733 173.708" enable-background="new 0 0 240.733 173.708"
	 xml:space="preserve">
<g>
	<g>
		<defs>
			<path id="SVGID_1_" d="M56.707,0.001l41.479,123.851h12.613c15.509,0,26.711-12.628,22.46-25.321L100.26,0.001H56.707z"/>
		</defs>
		<clipPath id="SVGID_2_">
			<use xlink:href="#SVGID_1_"  overflow="visible"/>
		</clipPath>
		
			<linearGradient id="SVGID_3_" gradientUnits="userSpaceOnUse" x1="-812.3886" y1="1017.929" x2="-811.3886" y2="1017.929" gradientTransform="matrix(77.46 0 0 77.46 62984.3281 -78786.8516)">
			<stop  offset="0" style="stop-color:#7B1FA2"/>
			<stop  offset="1" style="stop-color:#7C4DFF"/>
		</linearGradient>
		<rect x="56.707" y="0.001" clip-path="url(#SVGID_2_)" fill="url(#SVGID_3_)" width="80.803" height="123.851"/>
	</g>
	<g>
		<defs>
			<rect id="SVGID_4_" x="15.448" y="0" width="480.239" height="125.311"/>
		</defs>
		<clipPath id="SVGID_5_">
			<use xlink:href="#SVGID_4_"  overflow="visible"/>
		</clipPath>
		<g clip-path="url(#SVGID_5_)">
			<g>
				<defs>
					<rect id="SVGID_6_" x="15.448" y="0" width="480.239" height="125.311"/>
				</defs>
				<clipPath id="SVGID_7_">
					<use xlink:href="#SVGID_6_"  overflow="visible"/>
				</clipPath>
				<g clip-path="url(#SVGID_7_)">
					<g opacity="0.34">
						<g>
							<defs>
								<rect id="SVGID_8_" x="56.707" y="0" width="77.46" height="123.852"/>
							</defs>
							<clipPath id="SVGID_9_">
								<use xlink:href="#SVGID_8_"  overflow="visible"/>
							</clipPath>
							<path clip-path="url(#SVGID_9_)" d="M98.186,123.852h12.613c15.51,0,26.711-12.628,22.46-25.32L100.26,0H56.707
								L98.186,123.852z"/>
						</g>
					</g>
				</g>
			</g>
			<g>
				<defs>
					<rect id="SVGID_10_" x="15.448" y="0" width="480.239" height="125.311"/>
				</defs>
				<clipPath id="SVGID_11_">
					<use xlink:href="#SVGID_10_"  overflow="visible"/>
				</clipPath>
				<g clip-path="url(#SVGID_11_)">
					<g>
						<defs>
							<polygon id="SVGID_12_" points="56.927,0.001 15.448,123.852 59.001,123.852 100.479,0.001 							"/>
						</defs>
						<clipPath id="SVGID_13_">
							<use xlink:href="#SVGID_12_"  overflow="visible"/>
						</clipPath>
						
							<linearGradient id="SVGID_14_" gradientUnits="userSpaceOnUse" x1="-813.8617" y1="1021.5412" x2="-812.9174" y2="1021.5412" gradientTransform="matrix(84.2788 -145.9752 145.9752 84.2788 -80510.2266 -204767.0469)">
							<stop  offset="0" style="stop-color:#7B1FA2"/>
							<stop  offset="1" style="stop-color:#7C4DFF"/>
						</linearGradient>
						<polygon clip-path="url(#SVGID_13_)" fill="url(#SVGID_14_)" points="-47.573,92.889 36.706,-31.332 163.5,30.963 
							79.221,155.184 						"/>
					</g>
				</g>
				<g clip-path="url(#SVGID_11_)">
					<g>
						<defs>
							<rect id="SVGID_15_" x="98.115" y="0.317" width="480.239" height="125.311"/>
						</defs>
						<clipPath id="SVGID_16_">
							<use xlink:href="#SVGID_15_"  overflow="visible"/>
						</clipPath>
						<g clip-path="url(#SVGID_16_)">
							<g>
								<defs>
									<path id="SVGID_17_" d="M139.374,0.318l41.479,123.851h12.613c15.509,0,26.711-12.628,22.46-25.321l-32.999-98.53
										C182.927,0.318,139.374,0.318,139.374,0.318z"/>
								</defs>
								<clipPath id="SVGID_18_">
									<use xlink:href="#SVGID_17_"  overflow="visible"/>
								</clipPath>
								
									<linearGradient id="SVGID_19_" gradientUnits="userSpaceOnUse" x1="-811.3214" y1="1017.933" x2="-810.3214" y2="1017.933" gradientTransform="matrix(77.46 0 0 77.46 62984.3281 -78786.8516)">
									<stop  offset="0" style="stop-color:#7B1FA2"/>
									<stop  offset="1" style="stop-color:#7C4DFF"/>
								</linearGradient>
								<path clip-path="url(#SVGID_18_)" fill="url(#SVGID_19_)" d="M218.853,75.947c-0.56-1.632-1.106-3.268-1.619-4.909
									c-0.704-1.908-1.48-3.762-2.343-5.519c-5.569-11.346-11.011-22.174-13.571-34.637c-0.965-4.699-2.018-9.461-3.815-13.924
									c-1.182-2.936-3.37-6.145-5.445-7.489c-3.631-2.351-5.109-5.766-5.081-9.152h-47.605v123.851h80.803V81.001
									C219.783,79.311,219.345,77.62,218.853,75.947z"/>
							</g>
							<g>
								<defs>
									<rect id="SVGID_20_" x="98.115" y="0.317" width="480.239" height="125.311"/>
								</defs>
								<clipPath id="SVGID_21_">
									<use xlink:href="#SVGID_20_"  overflow="visible"/>
								</clipPath>
								<g clip-path="url(#SVGID_21_)">
									<g>
										<defs>
											<rect id="SVGID_22_" x="98.115" y="0.317" width="480.239" height="125.311"/>
										</defs>
										<clipPath id="SVGID_23_">
											<use xlink:href="#SVGID_22_"  overflow="visible"/>
										</clipPath>
										<g clip-path="url(#SVGID_23_)">
											<g opacity="0.34">
												<g>
													<defs>
														<rect id="SVGID_24_" x="139.374" y="0.317" width="77.46" height="123.852"/>
													</defs>
													<clipPath id="SVGID_25_">
														<use xlink:href="#SVGID_24_"  overflow="visible"/>
													</clipPath>
													<path clip-path="url(#SVGID_25_)" d="M180.853,124.169h12.613c15.51,0,26.711-12.628,22.46-25.32L182.927,0.317
														h-43.553L180.853,124.169z"/>
												</g>
											</g>
										</g>
									</g>
									<g>
										<defs>
											<rect id="SVGID_26_" x="98.115" y="0.317" width="480.239" height="125.311"/>
										</defs>
										<clipPath id="SVGID_27_">
											<use xlink:href="#SVGID_26_"  overflow="visible"/>
										</clipPath>
										<g clip-path="url(#SVGID_27_)">
											<g>
												<defs>
													<polygon id="SVGID_28_" points="139.594,0.318 98.115,124.169 141.668,124.169 183.146,0.318 													"/>
												</defs>
												<clipPath id="SVGID_29_">
													<use xlink:href="#SVGID_28_"  overflow="visible"/>
												</clipPath>
												
													<linearGradient id="SVGID_30_" gradientUnits="userSpaceOnUse" x1="-813.6181" y1="1021.956" x2="-812.6738" y2="1021.956" gradientTransform="matrix(84.2788 -145.9752 145.9752 84.2788 -80510.2266 -204767.0469)">
													<stop  offset="0" style="stop-color:#7B1FA2"/>
													<stop  offset="1" style="stop-color:#7C4DFF"/>
												</linearGradient>
												<path clip-path="url(#SVGID_29_)" fill="url(#SVGID_30_)" d="M214.892,65.519
													c-5.569-11.346-11.011-22.174-13.571-34.637c-0.965-4.699-2.018-9.461-3.815-13.924
													c-1.182-2.936-3.37-6.145-5.445-7.489c-2.927-1.896-4.451-4.484-4.921-7.19l-67.767-33.294L35.094,93.206
													l126.794,62.295l55.972-82.499c-0.219-0.668-0.433-1.337-0.642-2.007C216.518,69.102,215.748,67.263,214.892,65.519z"/>
											</g>
										</g>
										<circle clip-path="url(#SVGID_27_)" fill="#510682" cx="160.781" cy="105.333" r="9.333"/>
										<g clip-path="url(#SVGID_27_)">
											<g>
												<defs>
													<rect id="SVGID_31_" x="43.465" y="0" width="403.311" height="123.667"/>
												</defs>
												<clipPath id="SVGID_32_">
													<use xlink:href="#SVGID_31_"  overflow="visible"/>
												</clipPath>
											</g>
											<g>
												<defs>
													<rect id="SVGID_33_" x="43.465" y="0" width="403.311" height="123.667"/>
												</defs>
												<clipPath id="SVGID_34_">
													<use xlink:href="#SVGID_33_"  overflow="visible"/>
												</clipPath>
											</g>
											<g>
												<defs>
													<rect id="SVGID_35_" x="43.465" y="0" width="403.311" height="123.667"/>
												</defs>
												<clipPath id="SVGID_36_">
													<use xlink:href="#SVGID_35_"  overflow="visible"/>
												</clipPath>
											</g>
											<g>
												<defs>
													<rect id="SVGID_37_" x="43.465" y="0" width="403.311" height="123.667"/>
												</defs>
												<clipPath id="SVGID_38_">
													<use xlink:href="#SVGID_37_"  overflow="visible"/>
												</clipPath>
											</g>
											<g>
												<defs>
													<rect id="SVGID_39_" x="43.465" y="0" width="403.311" height="123.667"/>
												</defs>
												<clipPath id="SVGID_40_">
													<use xlink:href="#SVGID_39_"  overflow="visible"/>
												</clipPath>
											</g>
											<g>
												<defs>
													<rect id="SVGID_41_" x="43.465" y="0" width="403.311" height="123.667"/>
												</defs>
												<clipPath id="SVGID_42_">
													<use xlink:href="#SVGID_41_"  overflow="visible"/>
												</clipPath>
											</g>
											<g>
												<defs>
													<rect id="SVGID_43_" x="43.465" y="0" width="403.311" height="123.667"/>
												</defs>
												<clipPath id="SVGID_44_">
													<use xlink:href="#SVGID_43_"  overflow="visible"/>
												</clipPath>
											</g>
											<g>
												<defs>
													<rect id="SVGID_45_" x="43.465" y="0" width="403.311" height="123.667"/>
												</defs>
												<clipPath id="SVGID_46_">
													<use xlink:href="#SVGID_45_"  overflow="visible"/>
												</clipPath>
											</g>
											<g>
												<defs>
													<rect id="SVGID_47_" x="43.465" y="0" width="403.311" height="123.667"/>
												</defs>
												<clipPath id="SVGID_48_">
													<use xlink:href="#SVGID_47_"  overflow="visible"/>
												</clipPath>
											</g>
											<g>
												<defs>
													<rect id="SVGID_49_" x="43.465" y="0" width="403.311" height="123.667"/>
												</defs>
												<clipPath id="SVGID_50_">
													<use xlink:href="#SVGID_49_"  overflow="visible"/>
												</clipPath>
											</g>
										</g>
									</g>
								</g>
							</g>
						</g>
					</g>
				</g>
			</g>
		</g>
	</g>
</g>
<path fill="#CFD8DC" d="M72.852,174.205c-5.737,0-8.605-2.441-8.605-7.323v-25.029h3.144v8.233h5.461v2.937h-5.461v13.321
	c0,3.503,1.82,5.254,5.461,5.254V174.205z"/>
<path fill="#CFD8DC" d="M96.516,166.758l-0.331,0.703c-2.482,4.578-6.316,6.841-11.501,6.784c-3.42-0.027-6.371-1.226-8.853-3.599
	c-2.483-2.372-3.738-5.254-3.765-8.646c-0.055-3.42,1.165-6.351,3.662-8.791c2.496-2.441,5.481-3.689,8.956-3.744
	c2.482-0.027,4.799,0.62,6.95,1.944c2.041,1.269,3.503,2.869,4.385,4.799l0.455,1.034H92.91c-1.769-3.06-4.477-4.633-8.124-4.716
	c-2.432-0.055-4.615,0.829-6.549,2.653c-2.017,1.879-3.026,4.106-3.026,6.676c0,2.571,0.939,4.775,2.818,6.614
	c1.879,1.838,4.104,2.743,6.675,2.715c3.675-0.055,6.424-1.53,8.248-4.426H96.516z"/>
<path fill="#CFD8DC" d="M118.939,173.708h-3.144v-13.735c0-1.986-0.738-3.702-2.211-5.15c-1.474-1.448-3.2-2.144-5.175-2.089
	c-2.003,0.027-3.693,0.697-5.07,2.007c-1.377,1.31-2.065,2.972-2.065,4.985v13.983H98.13v-31.897h3.144v11.667
	c1.797-2.344,4.105-3.585,6.925-3.724c2.93-0.138,5.452,0.827,7.568,2.896c2.115,2.069,3.173,4.62,3.173,7.654V173.708z"/>
<path fill="#CFD8DC" d="M154.269,173.708h-3.552l-4.523-10.756h-14.748l-4.462,10.756h-4.033l14.232-31.856h3.558L154.269,173.708z
	 M145.072,160.097l-6.047-14.557l-6.186,14.557H145.072z"/>
<path fill="#CFD8DC" d="M177.603,161.918c0,3.31-1.145,6.164-3.434,8.563c-2.29,2.4-5.075,3.655-8.357,3.765
	c-3.393,0.11-6.344-1.075-8.853-3.558c-2.51-2.483-3.723-5.42-3.641-8.812v-0.165v-19.899h3.145v11.915
	c2.313-2.675,5.203-4.068,8.671-4.178c3.386-0.138,6.31,1.034,8.774,3.517C176.371,155.546,177.603,158.498,177.603,161.918
	 M174.458,161.69c-0.055-2.488-0.963-4.623-2.723-6.406c-1.76-1.783-3.9-2.674-6.421-2.674c-2.411,0-4.475,0.885-6.193,2.653
	c-1.719,1.769-2.605,3.897-2.66,6.385c-0.083,2.626,0.803,4.9,2.66,6.821c1.856,1.921,4.073,2.826,6.649,2.715
	c2.439-0.11,4.502-1.092,6.193-2.944C173.654,166.389,174.485,164.205,174.458,161.69"/>
<path fill="#CFD8DC" d="M204.575,161.918c0,3.392-1.234,6.323-3.703,8.791c-2.469,2.468-5.399,3.648-8.791,3.537
	c-3.283-0.082-6.061-1.323-8.336-3.723c-2.275-2.399-3.413-5.254-3.413-8.563c0-3.447,1.227-6.405,3.682-8.874
	c2.454-2.468,5.378-3.647,8.77-3.538c3.282,0.11,6.067,1.372,8.357,3.786C203.431,155.747,204.575,158.608,204.575,161.918
	 M201.431,161.668c-0.083-2.493-0.975-4.626-2.675-6.399c-1.7-1.773-3.752-2.66-6.157-2.66c-2.516-0.027-4.659,0.853-6.428,2.639
	c-1.769,1.787-2.668,3.941-2.695,6.462c-0.056,2.493,0.76,4.675,2.446,6.545c1.686,1.87,3.746,2.846,6.179,2.929
	c2.599,0.138,4.817-0.762,6.655-2.701C200.595,166.544,201.486,164.273,201.431,161.668"/>
<path fill="#CFD8DC" d="M228.612,163.572c0,3.061-0.986,5.613-2.958,7.654c-1.972,2.042-4.461,3.061-7.467,3.061
	c-3.007,0-5.496-1.019-7.468-3.061c-1.972-2.041-2.958-4.592-2.958-7.654v-13.445h3.144v13.845c0,1.99,0.728,3.696,2.184,5.12
	c1.456,1.424,3.155,2.134,5.097,2.134c1.942,0,3.641-0.711,5.097-2.134c1.456-1.424,2.184-3.13,2.184-5.12v-13.845h3.144V163.572z"
	/>
<path fill="#CFD8DC" d="M240.733,174.205c-5.737,0-8.605-2.441-8.605-7.323v-25.029h3.144v8.233h5.461v2.937h-5.461v13.321
	c0,3.503,1.82,5.254,5.461,5.254V174.205z"/>
<path fill="#CFD8DC" d="M60.938,161.876v0.165v11.667h-3.144v-3.682c-2.555,2.923-5.687,4.33-9.396,4.219
	c-3.242-0.11-6.003-1.365-8.283-3.765c-2.28-2.399-3.42-5.254-3.42-8.563c0-3.447,1.227-6.405,3.682-8.874
	c2.454-2.468,5.392-3.634,8.812-3.496c3.31,0.11,6.123,1.372,8.439,3.786C59.945,155.747,61.048,158.594,60.938,161.876
	 M57.794,161.648c-0.055-2.488-0.94-4.616-2.654-6.385c-1.714-1.769-3.773-2.654-6.178-2.654c-2.516,0-4.659,0.885-6.428,2.654
	c-1.769,1.769-2.668,3.911-2.695,6.427c-0.055,2.488,0.767,4.665,2.467,6.531c1.7,1.865,3.752,2.854,6.158,2.964
	c2.599,0.11,4.817-0.794,6.655-2.715C56.958,166.548,57.849,164.274,57.794,161.648"/>
<polygon fill="#CFD8DC" points="28.309,141.853 16.449,169.275 5.041,141.853 0,141.853 0,173.708 3.268,173.708 3.268,145.621 
	15.183,173.708 17.874,173.708 29.994,145.576 29.994,173.708 33.22,173.708 33.22,141.853 "/>
</svg>
